# Blender 5.2.0 LTS
# www.blender.org
mtllib Untitled.mtl
o Cube
v 10.339866 1.000000 -10.339866
v 10.339866 -1.000000 -10.339866
v 10.339866 1.000000 10.339866
v 10.339866 -1.000000 10.339866
v -10.339866 1.000000 -10.339866
v -10.339866 -1.000000 -10.339866
v -10.339866 1.000000 10.339866
v -10.339866 -1.000000 10.339866
v -10.339866 -1.000000 -1.076323
v 10.339866 1.000000 -1.076323
v -10.339866 1.000000 -1.076323
v 10.339866 -1.000000 -1.076323
v -10.339866 1.000000 -2.630377
v 10.339866 -1.000000 -2.630377
v -10.339866 -1.000000 -2.630377
v 10.339866 1.000000 -2.630377
v -10.339866 1.000000 -8.983850
v 10.339866 -1.000000 -8.983850
v -10.339866 -1.000000 -8.983850
v 10.339866 1.000000 -8.983850
v -8.681071 -1.000000 -10.339866
v -8.681071 1.000000 10.339866
v -8.681071 -1.000000 10.339866
v -8.681071 1.000000 -10.339866
v -8.681071 -1.000000 -1.076323
v -8.681071 1.000000 -1.076323
v -8.681071 1.000000 -2.630377
v -8.681071 -1.000000 -2.630377
v -8.681071 -1.000000 -8.983850
v -8.681071 1.000000 -8.983850
v 8.481533 -1.000000 10.339866
v 8.481533 1.000000 -10.339866
v 8.481533 1.000000 -1.076323
v 8.481533 1.000000 -2.630377
v 8.481533 1.000000 -8.983850
v 8.481533 -1.000000 -10.339866
v 8.481533 1.000000 10.339866
v 8.481533 -1.000000 -1.076323
v 8.481533 -1.000000 -2.630377
v 8.481533 -1.000000 -8.983850
v -5.813323 -1.000000 -10.339866
v -5.813323 1.000000 10.339866
v -5.813323 -1.000000 -1.076323
v -5.813323 -1.000000 -2.630377
v -5.813323 -1.000000 -8.983850
v -5.813323 -1.000000 10.339866
v -5.813323 1.000000 -10.339866
v -5.813323 1.000000 -1.076323
v -5.813323 1.000000 -2.630377
v -5.813323 1.000000 -8.983850
v -10.339866 6.670477 -8.983850
v -10.339866 6.670477 -10.339866
v 8.481533 6.670477 -10.339866
v 10.339866 6.670477 -10.339866
v 10.339866 6.670477 -2.630377
v 10.339866 6.670477 -1.076323
v 8.481533 6.670477 -1.076323
v -10.339866 6.670477 -1.076323
v -10.339866 6.670477 -2.630377
v 10.339866 6.670477 -8.983850
v 8.481533 6.670477 -2.630377
v 8.481533 6.670477 -8.983850
v -8.681071 6.670477 -10.339866
v -8.670746 6.670477 -1.076323
v -8.670746 6.670477 -2.630377
v -8.681071 6.670477 -8.983850
v -5.813323 6.670477 -10.339866
v -5.813323 6.670477 -1.076323
v -5.813323 6.670477 -2.630377
v -5.813323 6.670477 -8.983850
v -8.681071 5.581939 -10.339866
v -10.339866 5.581939 -10.339866
v -10.339866 5.581939 -8.983850
v 10.339866 5.581939 -10.339866
v 10.339866 5.581939 -2.630377
v 10.339866 5.581939 -8.983850
v -5.813323 5.581939 -8.983850
v 8.481533 5.581939 -8.983850
v 8.481533 5.581939 -2.630377
v 8.481533 5.581939 -10.339866
v -8.681071 5.581939 -8.983850
v -8.670746 5.581939 -1.076323
v -10.339866 5.581939 -1.076323
v -5.813323 5.581939 -1.076323
v -5.813323 5.581939 -2.630377
v 10.339866 5.581939 -1.076323
v 8.481533 5.581939 -1.076323
v -8.670746 5.581939 -2.630377
v -10.339866 5.581939 -2.630377
v -5.813323 5.581939 -10.339866
v -5.813323 6.670477 -2.630377
v -5.813323 6.670477 -1.076323
v -5.813323 5.581939 -1.076323
v -5.813323 5.581939 -2.630377
vn -0.0000 1.0000 -0.0000
vn -0.0000 -0.0000 1.0000
vn -1.0000 -0.0000 -0.0000
vn -0.0000 -1.0000 -0.0000
vn 1.0000 -0.0000 -0.0000
vn -0.0000 -0.0000 -1.0000
vn 1.0000 -0.0000 -0.0016
vn 1.0000 -0.0023 -0.0000
vn 1.0000 -0.0011 -0.0008
vt 0.854947 0.611988
vt 0.875000 0.611988
vt 0.875000 0.750000
vt 0.854947 0.750000
vt 0.375000 0.979947
vt 0.625000 0.979947
vt 0.625000 1.000000
vt 0.375000 1.000000
vt 0.375000 0.233607
vt 0.625000 0.233607
vt 0.625000 0.250000
vt 0.375000 0.250000
vt 0.352534 0.611988
vt 0.375000 0.611988
vt 0.375000 0.750000
vt 0.352534 0.750000
vt 0.625000 0.611988
vt 0.625000 0.750000
vt 0.375000 0.477534
vt 0.625000 0.477534
vt 0.625000 0.500000
vt 0.375000 0.500000
vt 0.375000 0.593201
vt 0.625000 0.593201
vt 0.352534 0.593201
vt 0.375000 0.000000
vt 0.625000 0.000000
vt 0.625000 0.138012
vt 0.375000 0.138012
vt 0.854947 0.516393
vt 0.820278 0.516393
vt 0.352534 0.516393
vt 0.375000 0.516393
vt 0.625000 0.516393
vt 0.625000 0.156799
vt 0.375000 0.156799
vt 0.352534 0.500000
vt 0.625000 0.477534
vt 0.647466 0.516393
vt 0.647466 0.593201
vt 0.647466 0.593201
vt 0.125000 0.500000
vt 0.145053 0.500000
vt 0.145053 0.516393
vt 0.125000 0.516393
vt 0.145053 0.593201
vt 0.125000 0.593201
vt 0.854947 0.593201
vt 0.820278 0.593201
vt 0.820278 0.611988
vt 0.145053 0.611988
vt 0.125000 0.611988
vt 0.625000 0.270053
vt 0.375000 0.270053
vt 0.145053 0.750000
vt 0.125000 0.750000
vt 0.375000 0.945278
vt 0.625000 0.945278
vt 0.820278 0.750000
vt 0.647466 0.611988
vt 0.647466 0.750000
vt 0.625000 0.772466
vt 0.375000 0.772466
vt 0.179722 0.500000
vt 0.179722 0.516393
vt 0.179722 0.593201
vt 0.179722 0.611988
vt 0.375000 0.304722
vt 0.625000 0.304722
vt 0.179722 0.750000
vt 0.875000 0.593201
vt 0.875000 0.516393
vt 0.854947 0.500000
vt 0.875000 0.500000
vt 0.820278 0.500000
vt 0.647466 0.500000
vt 0.647466 0.611988
s 0
usemtl Material
f 26/1/1 11/2/1 7/3/1 22/4/1
f 23/5/2 22/6/2 7/7/2 8/8/2
f 19/9/3 17/10/3 5/11/3 6/12/3
f 38/13/4 12/14/4 4/15/4 31/16/4
f 12/14/5 10/17/5 3/18/5 4/15/5
f 36/19/6 32/20/6 1/21/6 2/22/6
f 14/23/5 16/24/5 10/17/5 12/14/5
f 39/25/4 14/23/4 12/14/4 38/13/4
f 8/26/3 7/27/3 11/28/3 9/29/3
f 83/2/2 82/1/2 64/1/2 58/2/2
f 81/30/2 77/31/2 70/31/2 66/30/2
f 40/32/4 18/33/4 14/23/4 39/25/4
f 18/33/5 20/34/5 16/24/5 14/23/5
f 9/29/3 11/28/3 13/35/3 15/36/3
f 2/22/5 1/21/5 20/34/5 18/33/5
f 36/37/4 2/22/4 18/33/4 40/32/4
f 74/21/6 80/38/6 53/20/6 54/21/6
f 15/36/3 13/35/3 17/10/3 19/9/3
f 78/39/3 79/40/3 61/41/3 62/39/3
f 6/42/4 21/43/4 29/44/4 19/45/4
f 19/45/4 29/44/4 28/46/4 15/47/4
f 50/31/1 30/30/1 27/48/1 49/49/1
f 49/49/1 27/48/1 26/1/1 48/50/1
f 15/47/4 28/46/4 25/51/4 9/52/4
f 6/12/6 5/11/6 24/53/6 21/54/6
f 9/52/4 25/51/4 23/55/4 8/56/4
f 46/57/2 42/58/2 22/6/2 23/5/2
f 48/50/1 26/1/1 22/4/1 42/59/1
f 10/17/1 33/60/1 37/61/1 3/18/1
f 4/15/2 3/18/2 37/62/2 31/63/2
f 71/53/6 72/11/6 52/11/6 63/53/6
f 72/11/3 73/10/3 51/10/3 52/11/3
f 76/34/5 74/21/5 54/21/5 60/34/5
f 41/64/4 36/37/4 40/32/4 45/65/4
f 45/65/4 40/32/4 39/25/4 44/66/4
f 44/66/4 39/25/4 38/13/4 43/67/4
f 41/68/6 47/69/6 32/20/6 36/19/6
f 43/67/4 38/13/4 31/16/4 46/70/4
f 25/51/4 43/67/4 46/70/4 23/55/4
f 21/54/6 24/53/6 47/69/6 41/68/6
f 28/46/4 44/66/4 43/67/4 25/51/4
f 29/44/4 45/65/4 44/66/4 28/46/4
f 21/43/4 41/64/4 45/65/4 29/44/4
f 33/60/1 48/50/1 42/59/1 37/61/1
f 31/63/2 37/62/2 42/58/2 46/57/2
f 75/24/5 76/34/5 60/34/5 55/24/5
f 35/39/1 50/31/1 49/49/1 34/41/1
f 77/31/2 78/39/2 62/39/2 70/31/2
f 65/48/1 59/71/1 58/2/1 64/1/1
f 66/30/1 51/72/1 59/71/1 65/48/1
f 63/73/1 52/74/1 51/72/1 66/30/1
f 67/75/1 63/73/1 66/30/1 70/31/1
f 55/24/1 61/41/1 57/60/1 56/17/1
f 60/34/1 62/39/1 61/41/1 55/24/1
f 54/21/1 53/76/1 62/39/1 60/34/1
f 61/41/1 69/49/1 68/50/1 57/60/1
f 53/76/1 67/75/1 70/31/1 62/39/1
f 69/49/1 85/49/1 94/49/1 91/49/1
f 87/77/2 86/17/2 56/17/2 57/60/2
f 88/48/7 81/30/7 66/30/7 65/48/7
f 89/35/3 83/28/3 58/28/3 59/35/3
f 80/38/6 90/69/6 67/69/6 53/20/6
f 86/17/5 75/24/5 55/24/5 56/17/5
f 82/1/5 88/48/5 65/48/5 64/1/5
f 73/10/3 89/35/3 59/35/3 51/10/3
f 84/50/2 87/77/2 57/60/2 68/50/2
f 79/40/6 85/49/6 69/49/6 61/41/6
f 90/69/6 71/53/6 63/53/6 67/69/6
f 47/69/6 24/53/6 71/53/6 90/69/6
f 34/41/6 49/49/6 85/49/6 79/40/6
f 48/50/2 33/60/2 87/77/2 84/50/2
f 17/10/3 13/35/3 89/35/3 73/10/3
f 26/1/8 27/48/8 88/48/8 82/1/8
f 10/17/5 16/24/5 75/24/5 86/17/5
f 32/20/6 47/69/6 90/69/6 80/38/6
f 13/35/3 11/28/3 83/28/3 89/35/3
f 27/48/9 30/30/9 81/30/9 88/48/9
f 33/60/2 10/17/2 86/17/2 87/77/2
f 49/49/3 48/50/3 84/50/3 85/49/3
f 50/31/2 35/39/2 78/39/2 77/31/2
f 16/24/5 20/34/5 76/34/5 75/24/5
f 20/34/5 1/21/5 74/21/5 76/34/5
f 5/11/3 17/10/3 73/10/3 72/11/3
f 24/53/6 5/11/6 72/11/6 71/53/6
f 35/39/3 34/41/3 79/40/3 78/39/3
f 1/21/6 32/20/6 80/38/6 74/21/6
f 30/30/2 50/31/2 77/31/2 81/30/2
f 11/2/2 26/1/2 82/1/2 83/2/2
f 91/49/6 94/49/6 88/49/6 65/49/6
f 68/50/1 69/49/1 91/49/1 92/50/1
f 85/49/1 84/50/1 93/50/1 94/49/1
f 84/50/1 68/50/1 92/50/1 93/50/1
f 92/50/1 91/49/1 65/49/1 64/50/1
f 94/49/4 93/50/4 82/50/4 88/49/4
f 93/50/2 92/50/2 64/50/2 82/50/2
